<svg version="1.1" id="Capa_1" xmlns="http://www.w3.org/2000/svg" x="0" y="0" viewBox="0 0 300 150" xml:space="preserve"><style>.st0{fill:#004998}.st1{fill:#c7ce00}</style><g id="Elementos"><g id="top-logo-clickferry"><path id="Fill-6" class="st0" d="M206.6 88V69.3h4.8v-5.6h-4.9v-1.3c0-2.3 1-4.3 3.5-4.3 1 0 1.8.1 2.4.3l.5-5.8c-1-.2-2.3-.5-4-.5-2.3 0-4.8.7-6.7 2.4-2.2 2.1-3 5.3-3 8.1v1H196v5.6h3.2V88h7.4"/><path id="Fill-7" class="st0" d="M235.5 78.2c.1-.6.2-1.7.2-3 0-6.1-3-12-10.9-12-8.3 0-12.2 6.9-12.2 12.9 0 7.5 4.7 12.2 12.9 12.2 3.2 0 6.3-.5 8.8-1.6l-1-5.1c-2.1.7-4.1 1-6.7 1-3.5 0-6.6-1.5-6.9-4.6.2.1 15.8.2 15.8.2zm-15.7-5.1c.2-2.1 1.5-4.9 4.7-4.9 3.4 0 4.2 3 4.2 4.9h-8.9z"/><path id="Fill-8" class="st0" d="M238.7 88h7.4V75.7c0-.7 0-1.3.1-1.7.5-2.3 2.3-3.8 5.1-3.8.9 0 1.5.1 2.1.2v-7c-.6-.1-.9-.1-1.6-.1-2.3 0-5.4 1.5-6.6 5h-.2l-.3-4.5h-6.5c.1 2.2.2 4.3.2 7.9l.3 16.3"/><path id="Fill-9" class="st0" d="M257 88h7.5V75.7c0-.7 0-1.3.1-1.7.6-2.3 2.3-3.8 5.1-3.8.9 0 1.5.1 2.1.2v-7c-.6-.1-.9-.1-1.6-.1-2.3 0-5.4 1.5-6.6 5h-.1l-.3-4.5h-6.4c.1 2.2.2 4.3.2 7.9V88"/><path id="Fill-10" class="st0" d="M273.5 63.8l8.9 22.1c.2.6.3.9.3 1.3s-.1.7-.5 1.1c-.7 1.3-2.1 2.4-3.1 3-1.1.7-2.3 1.1-3.2 1.4l1.6 6.4c1.9-.2 4.7-1 7.2-3.3 2.7-2.4 5-6.3 8.5-15.9l5.7-16h-8l-3 11.8c-.3 1.5-.8 3.2-1.1 4.6h-.1c-.3-1.4-.8-3.1-1.3-4.5L282 63.9l-8.5-.1"/><path id="Fill-11" class="st1" d="M111.7 91c-2.4 0-4.5-.5-6.2-1.4-1.1-.7-2.2-1.5-2.9-2.4-.8-1.1-1.4-2.4-1.7-4s-.3-3.3.1-5.1c.9-4.1 3.2-8 6.9-11.7l.1-.1c2.9-2.9 4.6-4.6 7.4-4.6.5 0 .9 0 1.5.1 1.5.2 2.4.9 2.9 1.9.3.8.5 1.7.3 2.5-.5 1.9-2.4 2.5-2.9 2.5h-.1c-.2 0-.5.1-.8.1-.5 0-.8-.1-1.1-.3-.2-.2-.6-.3-.7-.3-.8 0-2.3 1.3-4.3 3.4-2.6 2.7-4.2 5.4-4.8 7.8-.3 1.5-.2 2.5.3 3.7.3.6.8 1.1 1.5 1.5 1 .6 2.4.9 4.1.9.8 0 1.7-.1 2.5-.2 2.2-.2 4.7-.8 7.5-1.7.2 0 .3-.1.6-.1.9 0 1.7.6 2.2 1.7.2.3.3.9.3 1.5v.1c.2 1.6-1 2.2-2.5 2.6-3 1.1-5 1.5-7.4 1.7-1-.2-1.9-.1-2.8-.1"/><path id="Fill-12" class="st1" d="M129.3 91.4c-.6 0-1.3-.2-1.9-.7-.6-.3-.8-1-1-2.3-.1-.8-.1-1.9-.1-3.1 0-2.5.2-6.3.6-10.9.1-1.6.5-4.9 1-10.7l.7-7c.3-3.5.8-4.2 1.3-4.6.6-.5 1.3-.7 1.8-.7.8 0 1.6.5 2.3 1.1.5.5.8 1.3.8 2.2 0 .7-.2 2.3-.6 4.7-.7 4.5-1.1 8-1.5 10.5-.2 2.4-.5 4.8-.6 7s-.1 4.8-.1 7.4v2.5c0 1.4-.1 2.3-.3 2.9-.7 1.1-1.5 1.7-2.4 1.7"/><path id="Fill-13" class="st1" d="M166.5 93c-1.9 0-2.5-2.2-2.5-8.5v-1.3c-2.1 1.3-4 2.3-5.9 3-3.5 1.6-6.6 2.3-9.1 2.3-1.3 0-2.3-.2-3.3-.6-1.1-.5-2.1-1.1-2.7-2.2-.7-1-1.1-2.3-1.1-3.5 0-2.9 1.5-6.3 4.3-9.7 2.9-3.5 5.6-5.5 8-5.9.3 0 .7-.1 1-.1 1.9 0 2.4 1 2.7 2.1.2.7.2 1.4-.1 1.8-.5.9-1.5 1-2.3 1.3-.7.1-1.4.2-2.2.6-.3.1-1.4.7-3.4 3.4-2.1 2.4-2.9 4.5-2.9 6.1 0 .8.2 1.3.8 1.6.3.2.9.3 1.6.3 1.6 0 3.9-.7 6.7-1.8 2.1-.9 4.3-2.2 7-3.5l1.4-.8c.1-2.1.5-4.1.7-6.3.6-3.5 1.3-7 2.1-9.8 1-3.8 1.6-4.6 2.3-4.9.7-.2 1-.2 1.1-.2.6 0 2.2.2 2.6 2.3.1.5.1 1-.8 3.4-.6 1.5-1 3.1-1.4 5.1l-.2 1.3c-.1.7-.2 1.1-.2 1.5l-.3 1.7 1.8-.6c2.9-.9 5.6-1.8 8-2.3 3.3-.9 5.7-1.4 7.1-1.4.6 0 1 .3 1.5.8.3.3.6.9.6 1.5 0 .9-.5 1.7-1.3 2.2l-.3.1c-2.2.5-4.9 1.1-8.1 2.1-2.5.7-5.4 1.6-8.3 2.7.5.5.9.8 1.3 1.1 2.3 1.9 5.3 3.5 8.5 5 1.1.6 2.3.9 3.1 1.1.9.2 1.8.3 2.5.3 1.1 0 2.2-.2 2.7-.6.7-.3.8-.6.8-.6.3-.6 1-1.3 2.4-1.3.7 0 1.3.2 1.7.6.7.3 1 1.1 1 1.9 0 .9-.3 1.7-1.1 2.3-.3.3-1 .7-1.9 1l-2.4 1c-1.3.3-2.4.6-3.5.6-2.6 0-5.8-.8-9-2.3-2.5-1.3-5.4-3-8.1-5.1-.1 1.7-.2 3.3-.2 4.9 0 .3.1.8.1 1.4.5 2.2.5 2.3.5 2.4 0 1.1-.6 1.7-.9 1.9-.6.4-1.4.6-2.4.6"/><path id="Fill-14" class="st1" d="M137.3 89.7c-.8 0-1.5-.2-2.1-.8-.5-.3-.7-1-.8-1.9-.1-.7-.1-1.1-.1-1.4 0-.1 0-.8.2-4.8.1-3 .2-5 .2-6.3 0-2.1.1-3.4.2-4.3.2-1.5 1.3-2.3 2.5-2.3.7 0 2.9.2 2.9 3.5 0 .2-.1 1.1-.6 5.6-.5 4-.6 5.4-.6 5.8 0 .9 0 1.6.1 2.1.1.6.2 1 .5 1.5v.3c0 .5-.1.9-.2 1.4 0 .8-.7 1.6-2.2 1.6"/><path id="Fill-15" class="st1" d="M139.2 65.9c-1 0-2.7-1-2.7-2.5 0-1.1.3-2.3.9-3.7.2-.8.6-1.3.7-1.5.1-.1.1-.1.1-.2.3-1 1.1-1.6 2.3-1.6.6 0 1.1.3 1.7.9.3.5.9 1.3.8 2.1 0 .5-.2.8-.6 1.1l-.1.1c-.3.6-.6 1.1-.8 1.6-.1.3-.2.8-.3 1.4-.1 1-.3 1.6-.8 2.1-.4.1-.8.2-1.2.2"/><path id="Fill-16" class="st1" d="M72.7 101.9c-.6-.8-1.4-1.5-5.5-2.9-2.6-.9-5.4-1.8-7.9-2.6-6.4-2.1-9.9-3-11.6-3.4-5.1-1.6-21.8-5.1-21.6-4.9-5.5-1-8.3-1.4-9.8-1.5-4.1-.5-7.2-.6-9.5-.6-1.1 0-2.1.1-2.7.1-1.3.1-1.9.3-2.5.7-.8.5-.6 2.5.8 2.5H5c2.5.1 4.7.3 7 .6 2.2.2 4.3.6 6.9 1.1 2.1.1 21.6 4.9 24.6 5.8 2.4.7 7 2.3 9.7 3.3s7 2.5 12.2 4.9c3 1.3 4.8 2.1 5.7 2.3 1.1.3 2.1.2 2.4-.2.8-.7 1-1.6.8-2.6-.6-.9-1-1.7-1.6-2.6"/><path id="Fill-17" class="st0" d="M43 82.6c-4.5-2.7.2-3.9 1.8-4.3 2.5-.7 33.2-9.4 33.7-9.5l2.9-1L66 66.2c-2.1-.1-13.2-1.5-29.4-.9-3.2.1-11.9 1.1-11.9 1.1l.1-2.1s7.1-1.8 14.8-2.4c7.1-.7 16-.2 25.2 2.3l-.6-.9S53 59.4 39 60.8c-14.1 1.4-29 6.7-29 6.7s-.3 2.9-.5 3.2c-.1.1-1.3.6-1.3.6L7 75.7v6.4l.1.2c2.2 0 4.8.1 8 .5 1.4.1 4.3.5 9.8 1.4-.2-.2 16.6 3 21.6 4.5 1.4.3 3.9 1 8.2 2.3h.5l-.8-.8c-3-2.1-7.9-5.4-11.4-7.6"/><path id="Fill-18" class="st0" d="M71.8 81.4c-.7-.2-.8-.6-.7-.9-2.3 1.3-6.4 4.1-8.7 5.9l24.4 1c0 .1-12.5-5.2-15-6"/></g></g></svg>