<svg version="1.1" id="Capa_1" xmlns="http://www.w3.org/2000/svg" x="0" y="0" viewBox="0 0 300 150" xml:space="preserve"><style>.st0{fill:#f76400}.st1{fill:#fff}</style><path class="st0" d="M277.7 106.1H125.2c-1.2 0-2.3-1-2.3-2.3V47.1c0-1.2 1-2.3 2.3-2.3h152.5c1.2 0 2.3 1 2.3 2.3v56.6c0 1.4-1.1 2.4-2.3 2.4z"/><path class="st1" d="M129.2 79c0-2.2.4-4.4 1.2-6.3.7-1.9 1.8-3.7 3.3-5.2 1.3-1.5 3-2.7 5-3.5 1.9-.9 4.1-1.3 6.5-1.3 3 0 5.6.7 7.8 2.1 2.2 1.3 3.9 3.2 5.1 5.5l-4 1.3c-.9-1.6-2.2-2.9-3.7-3.8-1.6-1-3.3-1.3-5.2-1.3-1.6 0-3.2.4-4.5 1s-2.6 1.6-3.7 2.7c-1 1.1-1.8 2.4-2.4 4s-.9 3.3-.9 5.1c0 1.8.4 3.5 1 5.1s1.5 2.9 2.6 4.1 2.3 2.1 3.7 2.7c1.3.6 2.9 1 4.5 1 1 0 2.1-.1 3-.4 1-.2 1.9-.7 2.8-1.2.9-.5 1.6-1.1 2.2-1.7.6-.6 1-1.3 1.3-2.1l4 1.2c-.5 1.2-1.1 2.2-1.9 3.2-.9 1-1.8 1.8-3 2.6-1.2.7-2.4 1.2-3.9 1.6-1.3.4-2.8.6-4.4.6-2.3 0-4.5-.4-6.5-1.3-1.9-.9-3.7-2.1-5.1-3.5-1.5-1.6-2.6-3.3-3.3-5.2-1.2-2.6-1.5-4.6-1.5-7zM177.4 95.6c-2.3 0-4.5-.4-6.3-1.3-1.9-.9-3.5-2.1-5-3.5-1.3-1.5-2.6-3.3-3.3-5.2-.7-1.9-1.2-4.1-1.2-6.2 0-2.2.4-4.4 1.2-6.3.7-1.9 1.9-3.7 3.3-5.2 1.3-1.5 3-2.7 5-3.5 1.9-.9 4-1.3 6.3-1.3s4.4.5 6.3 1.3c1.9.9 3.5 2.1 5 3.5 1.3 1.5 2.6 3.3 3.3 5.2.7 1.9 1.2 4.1 1.2 6.3s-.4 4.3-1.2 6.2c-.7 1.9-1.9 3.7-3.3 5.2-1.3 1.5-3 2.7-5 3.5-1.9.8-4 1.3-6.3 1.3zm-11.5-16.3c0 1.8.2 3.4.9 5 .6 1.6 1.3 2.9 2.4 4 1 1.2 2.3 2.1 3.7 2.7 1.3.6 2.9 1 4.5 1s3-.4 4.5-1c1.3-.6 2.7-1.6 3.7-2.7 1.1-1.2 1.9-2.6 2.6-4s1-3.2 1-5c0-1.7-.4-3.4-1-5s-1.5-2.9-2.6-4.1-2.3-2.1-3.7-2.7-2.9-1-4.5-1-2.9.4-4.4 1.1c-1.3.6-2.6 1.6-3.7 2.8-1 1.2-1.8 2.6-2.4 4.1-.7 1.4-1 3-1 4.8zM209.9 95.6c-2.4 0-4.9-.4-7.2-1.2-2.3-.7-4.4-1.9-6.1-3.5l1.9-2.8c1.7 1.5 3.7 2.6 5.5 3.3 1.8.7 3.8 1.1 6 1.1 2.6 0 4.6-.5 6.1-1.6 1.6-1 2.3-2.6 2.3-4.4 0-.9-.2-1.6-.6-2.2-.4-.6-1-1.1-1.8-1.6-.7-.5-1.7-.9-2.9-1.2-1.2-.4-2.6-.7-4.1-1.1-1.8-.5-3.4-.9-4.7-1.3s-2.4-1-3.3-1.6c-.9-.6-1.6-1.2-1.9-2.1-.4-.9-.6-1.8-.6-3.2 0-1.6.4-2.9 1-4.3.6-1.2 1.5-2.2 2.6-3s2.3-1.3 3.8-1.8 2.9-.6 4.6-.6c2.4 0 4.6.4 6.6 1.2 1.9.7 3.5 1.8 4.9 3.2l-1.9 2.3c-1.2-1.2-2.6-2.2-4.3-2.7-1.7-.6-3.4-1-5.2-1-1.1 0-2.1.1-3 .4-1 .2-1.7.6-2.4 1.1s-1.2 1.1-1.7 1.8c-.4.7-.6 1.6-.6 2.7 0 .9.1 1.6.4 2.1.2.5.7 1 1.3 1.3s1.5.7 2.4 1c1 .4 2.2.6 3.7 1 2.1.5 3.8 1 5.4 1.5 1.6.5 2.8 1.1 3.9 1.7 1.1.6 1.8 1.5 2.3 2.3.5 1 .7 2.1.7 3.4 0 2.9-1.1 5.2-3.3 6.9-3 2-6 2.9-9.8 2.9zM243.5 93.4c-.2.1-.6.2-1.1.5-.5.2-1 .4-1.6.6s-1.3.4-2.1.6c-.7.1-1.6.2-2.4.2s-1.7-.1-2.6-.4c-.9-.2-1.6-.6-2.2-1.1-.6-.5-1.1-1.2-1.5-1.9-.4-.7-.6-1.7-.6-2.7V66.6H225v-3.3h4.4V52.6h4.1v10.7h7.3v3.3h-7.3v21.5c.1 1.2.5 2.1 1.2 2.6.7.6 1.6.9 2.6.9 1.2 0 2.2-.2 3.2-.6s1.5-.6 1.7-.9l1.3 3.3zM256.1 95.6c-1.6 0-3.2-.2-4.5-.7s-2.6-1.2-3.4-2.1c-1-.9-1.7-1.9-2.2-3.2-.5-1.2-.7-2.4-.7-3.7 0-1.5.4-2.8 1-4s1.6-2.2 2.7-3c1.2-.9 2.6-1.6 4.3-1.9 1.7-.4 3.5-.7 5.5-.7 1.6 0 3.2.1 4.9.4s3.2.7 4.5 1.2V75c0-2.8-.7-5-2.4-6.7-1.6-1.6-3.8-2.4-6.5-2.4-1.7 0-3.4.4-5.1 1s-3.4 1.6-5.1 2.8l-1.5-2.7c2.1-1.3 4.1-2.4 6-3.2 1.9-.7 4-1 6.1-1 3.9 0 6.9 1.1 9.1 3.3 2.3 2.2 3.4 5.4 3.4 9.3v14.2c0 1.1.5 1.7 1.5 1.7V95c-.4 0-.6.1-1 .1h-.7c-.9 0-1.6-.2-2.2-.7s-1.1-1.2-1.1-2.2l-.1-2.6c-1.3 1.8-3.2 3.3-5.5 4.4-2.3 1.1-4.6 1.6-7 1.6zm1.1-3.2c1.8 0 3.7-.4 5.5-1.2 1.8-.7 3.3-1.8 4.3-3.3.2-.4.5-.7.7-1.2.2-.4.4-.9.4-1.2v-5.1c-1.3-.5-2.8-1-4.3-1.2s-2.9-.4-4.4-.4c-2.9 0-5.4.6-7.2 1.8-1.8 1.2-2.8 2.8-2.8 5 0 .9.1 1.7.5 2.6s.9 1.6 1.5 2.2 1.5 1.2 2.4 1.6c.9.2 2.1.4 3.4.4z"/><g><path class="st0" d="M40.4 95.8c-3.2 0-6.1-.6-8.8-1.9-2.7-1.2-4.9-2.9-6.7-5-1.8-2.1-3.3-4.4-4.4-6.9-1-2.7-1.6-5.4-1.6-8.2 0-2.8.6-5.6 1.6-8.2 1.1-2.7 2.6-5 4.5-6.9s4.3-3.7 6.8-4.7c2.7-1.2 5.5-1.8 8.6-1.8 3.2 0 6.1.6 8.8 1.9 2.7 1.2 4.9 2.9 6.7 5s3.3 4.4 4.3 7.1 1.6 5.2 1.6 8-.6 5.6-1.6 8.2-2.6 5-4.5 6.9-4.1 3.7-6.8 4.9c-2.5 1-5.4 1.6-8.5 1.6zM29.1 73.9c0 1.7.2 3.3.7 4.9s1.2 2.9 2.2 4.1c1 1.2 2.2 2.2 3.5 2.9 1.5.7 3 1.1 4.9 1.1s3.5-.4 5-1.2c1.5-.7 2.6-1.7 3.5-3 1-1.2 1.6-2.7 2.1-4.1.5-1.6.7-3.2.7-4.7 0-1.7-.2-3.3-.7-4.9s-1.2-2.9-2.2-4.1c-1-1.2-2.2-2.2-3.5-2.9s-3-1.1-4.9-1.1-3.5.4-5 1.1c-1.3.7-2.6 1.7-3.5 2.9-1 1.2-1.7 2.6-2.2 4.1-.4 1.8-.6 3.3-.6 4.9zM66.7 51.2h9.7v33c0 2.4 1 3.7 3.2 3.7.5 0 1-.1 1.6-.2s1.1-.4 1.6-.6l1.3 7.3c-1.2.6-2.6 1-4.1 1.3s-3 .5-4.5.5c-2.8 0-5-.7-6.5-2.2s-2.2-3.5-2.2-6.3l-.1-36.5zM102.4 96.1c-2.7 0-5.1-.4-7.2-1.3-2.2-.9-3.9-2.1-5.5-3.5-1.5-1.5-2.6-3.3-3.4-5.2-.7-1.9-1.2-4-1.2-6.2 0-2.3.4-4.5 1.2-6.6.7-2.1 1.9-3.9 3.3-5.4 1.5-1.6 3.3-2.7 5.4-3.7 2.2-.9 4.5-1.3 7.3-1.3s5.1.5 7.2 1.3c2.1.9 3.9 2.1 5.4 3.7s2.6 3.3 3.3 5.2 1.1 4.1 1.1 6.2V81c0 .6-.1 1-.2 1.5H95.6c.1 2.2 1 3.8 2.3 4.9s2.9 1.7 4.7 1.7c1.5 0 2.8-.4 4.1-1 1.3-.7 2.2-1.6 2.7-2.8l8.3 2.3c-1.2 2.6-3.2 4.5-5.8 6.1-2.7 1.5-5.7 2.4-9.5 2.4zm6.8-19.6c-.2-2.1-1-3.7-2.2-4.7-1.2-1.1-2.8-1.7-4.6-1.7-1.9 0-3.5.6-4.7 1.8-1.2 1.2-1.9 2.8-2.2 4.7l13.7-.1z"/></g></svg>