<?xml version="1.0" encoding="utf-8"?>
<!-- Generator: Adobe Illustrator 21.0.0, SVG Export Plug-In . SVG Version: 6.00 Build 0)  -->
<svg version="1.1" id="Capa_1" xmlns="http://www.w3.org/2000/svg" xmlns:xlink="http://www.w3.org/1999/xlink" x="0px" y="0px"
	 viewBox="0 0 376.7 188.3" style="enable-background:new 0 0 376.7 188.3;" xml:space="preserve">
<style type="text/css">
	.st0{fill:#F6921C;}
	.st1{fill:#666666;}
</style>
<g>
	<g>
		<path class="st0" d="M52.1,97.8H26c-3.1,0-5.7-1-7.8-3c-2.1-2-3.2-4.6-3.2-7.6V74.8c0-3.1,1.1-5.6,3.2-7.6s4.7-3,7.8-3h26.1V72H26
			c-2.1,0-3.2,0.9-3.2,2.8v12.4c0,1.9,1,2.8,3.2,2.8h26.1V97.8z"/>
		<path class="st0" d="M95,97.8H84.3L67.4,78.9h20.3c1.4,0,2.2-1.2,2.2-3.5c0-2.3-0.7-3.5-2.2-3.5H63.3v25.9h-7.9V64.1h32.8
			c3,0,5.4,1.2,7.2,3.5c1.6,2.1,2.4,4.7,2.4,7.8c0,3.1-0.8,5.7-2.4,7.8c-1.7,2.4-4.1,3.5-7.2,3.5h-3L95,97.8z"/>
		<path class="st0" d="M137.1,72h-28.2V77h26.3v7.9h-26.3V90H137v7.9h-36V64.1h36V72z"/>
		<path class="st0" d="M181.8,97.8h-7.9V87.1h-20.7v-7.9h20.7v-4.7c0-1.7-0.6-2.6-1.7-2.6h-22.3c-1.1,0-1.6,0.9-1.6,2.6v23.3h-7.9
			V74.5c0-2.8,0.9-5.3,2.7-7.3c1.8-2.1,4.1-3.1,6.9-3.1h22.3c2.8,0,5.2,1,6.9,3.1c1.8,2.1,2.7,4.5,2.7,7.3V97.8z"/>
		<path class="st0" d="M223.4,72h-15.2v25.9h-7.9V72H185v-7.9h38.3V72z"/>
		<path class="st0" d="M234.1,97.8h-7.9V64.1h7.9V97.8z"/>
		<path class="st0" d="M276.4,64.1l-17.2,33.7h-6.7l-17.3-33.7h8.8l11.9,23.1l11.7-23.1H276.4z"/>
		<path class="st0" d="M320.1,97.8h-7.9V87.1h-20.7v-7.9h20.7v-4.7c0-1.7-0.6-2.6-1.7-2.6h-22.3c-1.1,0-1.6,0.9-1.6,2.6v23.3h-7.9
			V74.5c0-2.8,0.9-5.3,2.7-7.3c1.8-2.1,4.1-3.1,6.9-3.1h22.3c2.8,0,5.2,1,6.9,3.1c1.8,2.1,2.7,4.5,2.7,7.3V97.8z"/>
		<path class="st0" d="M361.7,72h-15.2v25.9h-7.9V72h-15.2v-7.9h38.3V72z"/>
	</g>
</g>
<g>
	<g>
		<path class="st1" d="M33.5,124.6l1.5-0.3c0.6,1.8,1.9,2.7,4,2.7c1.1,0,1.9-0.2,2.4-0.7c0.5-0.5,0.8-1.1,0.8-1.8
			c0-0.6-0.2-1-0.6-1.4s-0.9-0.6-1.4-0.7l-2.7-0.7c-0.7-0.2-1.3-0.4-1.7-0.6c-0.4-0.3-0.8-0.6-1.1-1.2c-0.3-0.5-0.5-1.1-0.5-1.8
			c0-1.1,0.4-2,1.3-2.7c0.8-0.7,1.9-1,3.3-1c2.4,0,4,1.1,4.8,3.3l-1.5,0.5c-0.2-0.8-0.6-1.4-1.3-1.8c-0.7-0.4-1.4-0.6-2.1-0.6
			c-0.7,0-1.4,0.2-2,0.6c-0.6,0.4-0.9,0.9-0.9,1.7c0,1,0.7,1.7,2.2,2l2.5,0.6c2.3,0.6,3.4,1.8,3.4,3.7c0,1.2-0.4,2.1-1.3,2.9
			c-0.9,0.8-2.1,1.2-3.6,1.2C36.2,128.4,34.3,127.1,33.5,124.6z"/>
		<path class="st1" d="M52.8,125.2l1.4,0.3c-0.3,0.8-0.8,1.6-1.5,2.1c-0.8,0.6-1.7,0.8-2.7,0.8c-1.4,0-2.5-0.5-3.3-1.4
			c-0.8-1-1.3-2.2-1.3-3.8c0-1.6,0.4-2.9,1.3-3.8c0.9-1,2-1.5,3.3-1.5c1.3,0,2.3,0.4,3.1,1.3c0.8,0.9,1.2,2.2,1.2,4h-7.2
			c0,1.5,0.3,2.5,0.9,3c0.6,0.5,1.3,0.8,2,0.8C51.4,127.1,52.3,126.5,52.8,125.2z M52.8,122.2c0-0.6-0.1-1.1-0.3-1.5
			c-0.2-0.4-0.5-0.8-0.9-1.1c-0.4-0.3-0.9-0.5-1.5-0.5c-0.8,0-1.4,0.3-2,0.8c-0.5,0.6-0.8,1.3-0.9,2.2H52.8z"/>
		<path class="st1" d="M58.3,128.1h-1.5v-9.9h1.4v2.3c0.5-1.1,1-1.8,1.4-2.1c0.5-0.3,1-0.5,1.5-0.5c0.2,0,0.4,0,0.6,0v1.5h-0.3
			c-0.9,0-1.6,0.3-2.1,1c-0.6,0.6-0.9,1.5-0.9,2.5V128.1z"/>
		<path class="st1" d="M71.2,118.2l-3.4,9.9h-1.6l-3.6-9.9h1.7l2.8,8.1l2.7-8.1H71.2z"/>
		<path class="st1" d="M74.6,114.7v1.7H73v-1.7H74.6z M74.6,118.2v9.9H73v-9.9H74.6z"/>
		<path class="st1" d="M83.5,124.7l1.4,0.2c-0.2,1.1-0.6,2-1.3,2.6c-0.7,0.6-1.5,0.9-2.5,0.9c-1.4,0-2.4-0.5-3.1-1.5
			c-0.7-1-1.1-2.2-1.1-3.7c0-1.5,0.4-2.8,1.1-3.8c0.8-1,1.8-1.5,3.1-1.5c1.1,0,2,0.3,2.6,1c0.7,0.6,1.1,1.5,1.2,2.5l-1.4,0.3
			c-0.3-1.6-1.1-2.5-2.4-2.5c-0.9,0-1.5,0.4-2,1.1c-0.5,0.7-0.7,1.7-0.7,2.8c0,1.3,0.2,2.3,0.7,3s1.1,1.1,1.9,1.1
			C82.4,127.1,83.2,126.3,83.5,124.7z"/>
		<path class="st1" d="M88.6,114.7v1.7H87v-1.7H88.6z M88.6,118.2v9.9h-1.5v-9.9H88.6z"/>
		<path class="st1" d="M95.2,128.4c-1.4,0-2.4-0.5-3.2-1.5c-0.8-1-1.1-2.3-1.1-3.8c0-1.6,0.4-2.8,1.3-3.8c0.9-0.9,1.9-1.4,3.2-1.4
			c1.4,0,2.5,0.5,3.2,1.5c0.8,1,1.2,2.2,1.2,3.7c0,1.6-0.4,2.8-1.3,3.8C97.7,127.9,96.6,128.4,95.2,128.4z M95.4,127.1
			c0.8,0,1.4-0.3,2-1c0.5-0.6,0.8-1.7,0.8-3c0-1.4-0.3-2.4-0.8-3c-0.6-0.6-1.2-0.9-2-0.9c-0.8,0-1.4,0.3-2,0.9
			c-0.5,0.6-0.8,1.6-0.8,3c0,1.4,0.3,2.5,0.8,3.1C93.9,126.8,94.6,127.1,95.4,127.1z"/>
		<path class="st1" d="M100.8,125.6l1.5-0.3c0.3,1.3,1.4,1.9,3.1,1.9c0.6,0,1.2-0.1,1.6-0.4c0.4-0.3,0.7-0.7,0.7-1.2
			c0-0.8-0.6-1.3-1.7-1.5l-2.1-0.4c-0.8-0.2-1.5-0.5-2-0.9c-0.5-0.5-0.7-1.1-0.7-1.8c0-0.8,0.3-1.5,1-2.1c0.7-0.6,1.6-0.8,2.7-0.8
			c2.2,0,3.5,0.8,4,2.5l-1.4,0.3c-0.4-1-1.2-1.6-2.5-1.6c-0.6,0-1.1,0.1-1.6,0.4c-0.4,0.3-0.6,0.6-0.6,1.1c0,0.7,0.5,1.2,1.5,1.4
			l1.9,0.3c2,0.4,3,1.4,3,2.9c0,0.9-0.4,1.7-1.1,2.2c-0.8,0.6-1.8,0.8-3,0.8C102.8,128.4,101.4,127.5,100.8,125.6z"/>
		<path class="st1" d="M124.3,114.7v13.4h-1.4v-1.7c-0.7,1.3-1.7,2-3.1,2c-1.2,0-2.1-0.5-2.9-1.5c-0.7-1-1.1-2.2-1.1-3.7
			c0-1.5,0.4-2.8,1.1-3.8c0.7-1,1.7-1.5,3-1.5c1.2,0,2.2,0.5,2.9,1.6v-4.9H124.3z M122.8,122c0-0.9-0.3-1.6-0.8-2.1
			c-0.5-0.5-1.2-0.8-1.9-0.8c-0.8,0-1.4,0.3-1.9,1c-0.5,0.7-0.7,1.6-0.7,2.9c0,1.3,0.2,2.3,0.7,3c0.5,0.7,1.1,1,1.9,1
			c0.7,0,1.4-0.3,1.9-0.9c0.6-0.6,0.8-1.3,0.8-2.1V122z"/>
		<path class="st1" d="M134,125.2l1.4,0.3c-0.3,0.8-0.8,1.6-1.5,2.1c-0.8,0.6-1.7,0.8-2.7,0.8c-1.4,0-2.5-0.5-3.3-1.4
			c-0.8-1-1.3-2.2-1.3-3.8c0-1.6,0.4-2.9,1.3-3.8c0.9-1,2-1.5,3.3-1.5c1.3,0,2.3,0.4,3.1,1.3c0.8,0.9,1.2,2.2,1.2,4h-7.2
			c0,1.5,0.3,2.5,0.9,3c0.6,0.5,1.3,0.8,2,0.8C132.6,127.1,133.5,126.5,134,125.2z M133.9,122.2c0-0.6-0.1-1.1-0.3-1.5
			c-0.2-0.4-0.5-0.8-0.9-1.1c-0.4-0.3-0.9-0.5-1.5-0.5c-0.8,0-1.4,0.3-2,0.8c-0.5,0.6-0.8,1.3-0.9,2.2H133.9z"/>
		<path class="st1" d="M144.8,128.1h-1.7v-13.4h1.7V128.1z"/>
		<path class="st1" d="M155.9,128.1h-1.4v-6.4c0-0.9-0.2-1.6-0.6-1.9c-0.4-0.4-0.9-0.6-1.5-0.6c-0.8,0-1.5,0.3-2,0.9
			c-0.5,0.6-0.8,1.5-0.8,2.5v5.5H148v-9.9h1.4v1.8c0.8-1.4,1.9-2.1,3.1-2.1c0.7,0,1.4,0.2,1.9,0.6c0.5,0.4,0.9,0.8,1.1,1.3
			c0.2,0.5,0.3,1.3,0.3,2.6V128.1z"/>
		<path class="st1" d="M163.5,127.1v1.2c-0.5,0.1-1,0.1-1.4,0.1c-1.9,0-2.9-1-2.9-3v-6h-1.8v-1.2h1.8l0.1-2.5l1.4-0.1v2.6h2.2v1.2
			h-2.2v6.3c0,1,0.5,1.5,1.6,1.5C162.6,127.2,163,127.2,163.5,127.1z"/>
		<path class="st1" d="M171.4,125.2l1.4,0.3c-0.3,0.8-0.8,1.6-1.5,2.1c-0.8,0.6-1.7,0.8-2.7,0.8c-1.4,0-2.5-0.5-3.3-1.4
			c-0.8-1-1.3-2.2-1.3-3.8c0-1.6,0.4-2.9,1.3-3.8c0.9-1,2-1.5,3.3-1.5c1.3,0,2.3,0.4,3.1,1.3c0.8,0.9,1.2,2.2,1.2,4h-7.2
			c0,1.5,0.3,2.5,0.9,3c0.6,0.5,1.3,0.8,2,0.8C170,127.1,170.9,126.5,171.4,125.2z M171.3,122.2c0-0.6-0.1-1.1-0.3-1.5
			c-0.2-0.4-0.5-0.8-0.9-1.1c-0.4-0.3-0.9-0.5-1.5-0.5c-0.8,0-1.4,0.3-2,0.8c-0.5,0.6-0.8,1.3-0.9,2.2H171.3z"/>
		<path class="st1" d="M176.9,128.1h-1.5v-9.9h1.4v2.3c0.5-1.1,1-1.8,1.4-2.1c0.5-0.3,1-0.5,1.5-0.5c0.2,0,0.4,0,0.6,0v1.5h-0.3
			c-0.9,0-1.6,0.3-2.1,1c-0.6,0.6-0.9,1.5-0.9,2.5V128.1z"/>
		<path class="st1" d="M189.8,128.1h-1.4v-6.4c0-0.9-0.2-1.6-0.6-1.9c-0.4-0.4-0.9-0.6-1.5-0.6c-0.8,0-1.5,0.3-2,0.9
			c-0.5,0.6-0.8,1.5-0.8,2.5v5.5H182v-9.9h1.4v1.8c0.8-1.4,1.9-2.1,3.1-2.1c0.7,0,1.4,0.2,1.9,0.6c0.5,0.4,0.9,0.8,1.1,1.3
			c0.2,0.5,0.3,1.3,0.3,2.6V128.1z"/>
		<path class="st1" d="M199.5,125.2l1.4,0.3c-0.3,0.8-0.8,1.6-1.5,2.1c-0.8,0.6-1.7,0.8-2.7,0.8c-1.4,0-2.5-0.5-3.3-1.4
			c-0.8-1-1.3-2.2-1.3-3.8c0-1.6,0.4-2.9,1.3-3.8c0.9-1,2-1.5,3.3-1.5c1.3,0,2.3,0.4,3.1,1.3c0.8,0.9,1.2,2.2,1.2,4h-7.2
			c0,1.5,0.3,2.5,0.9,3c0.6,0.5,1.3,0.8,2,0.8C198,127.1,198.9,126.5,199.5,125.2z M199.4,122.2c0-0.6-0.1-1.1-0.3-1.5
			c-0.2-0.4-0.5-0.8-0.9-1.1c-0.4-0.3-0.9-0.5-1.5-0.5c-0.8,0-1.4,0.3-2,0.8c-0.5,0.6-0.8,1.3-0.9,2.2H199.4z"/>
		<path class="st1" d="M207.8,127.1v1.2c-0.5,0.1-1,0.1-1.4,0.1c-1.9,0-2.9-1-2.9-3v-6h-1.8v-1.2h1.8l0.1-2.5l1.4-0.1v2.6h2.2v1.2
			H205v6.3c0,1,0.5,1.5,1.6,1.5C207,127.2,207.4,127.2,207.8,127.1z"/>
		<path class="st1" d="M216.1,131.5h-1.5v-13.3h1.4v1.9c0.7-1.5,1.7-2.2,3.1-2.2c1.2,0,2.1,0.5,2.8,1.5c0.7,1,1.1,2.2,1.1,3.7
			c0,1.6-0.4,2.9-1.1,3.9c-0.7,1-1.7,1.4-2.9,1.4c-1.3,0-2.2-0.6-2.9-1.8V131.5z M216.1,121.7v2.8c0.1,0.8,0.4,1.4,1,1.9
			c0.5,0.5,1.1,0.7,1.7,0.7c0.7,0,1.3-0.3,1.8-0.9c0.5-0.6,0.8-1.6,0.8-3.1c0-1.3-0.2-2.2-0.7-2.9c-0.5-0.7-1.1-1-1.9-1
			c-0.6,0-1.2,0.2-1.7,0.7C216.6,120.5,216.2,121.1,216.1,121.7z"/>
		<path class="st1" d="M233.1,128.1h-1.5c-0.1-0.3-0.1-0.9-0.2-1.8c-0.7,1.4-1.8,2.1-3.5,2.1c-1.1,0-2-0.3-2.6-0.9s-0.9-1.3-0.9-2.1
			c0-1,0.4-1.8,1.3-2.5c0.9-0.6,2.3-1,4.4-1c0.3,0,0.7,0,1.3,0c0-0.8-0.1-1.4-0.2-1.7s-0.4-0.6-0.8-0.8c-0.4-0.2-0.9-0.3-1.6-0.3
			c-1.6,0-2.5,0.6-2.7,1.8l-1.4-0.2c0.3-1.8,1.8-2.7,4.4-2.7c1.4,0,2.3,0.3,2.9,0.9c0.6,0.6,0.9,1.7,0.9,3.2v4.2
			C232.9,126.9,233,127.6,233.1,128.1z M231.4,123.2c-0.6,0-1.1-0.1-1.4-0.1c-1.2,0-2.2,0.2-2.8,0.6c-0.7,0.4-1,1-1,1.8
			c0,0.5,0.2,0.9,0.5,1.2c0.4,0.3,0.9,0.5,1.6,0.5c0.9,0,1.7-0.3,2.3-1c0.6-0.7,0.9-1.5,0.9-2.4
			C231.4,123.6,231.4,123.4,231.4,123.2z"/>
		<path class="st1" d="M237.5,128.1H236v-9.9h1.4v2.3c0.5-1.1,1-1.8,1.4-2.1c0.5-0.3,1-0.5,1.5-0.5c0.2,0,0.4,0,0.6,0v1.5h-0.3
			c-0.9,0-1.6,0.3-2.1,1c-0.6,0.6-0.9,1.5-0.9,2.5V128.1z"/>
		<path class="st1" d="M250.4,128.1h-1.5c-0.1-0.3-0.1-0.9-0.2-1.8c-0.7,1.4-1.8,2.1-3.5,2.1c-1.1,0-2-0.3-2.6-0.9s-0.9-1.3-0.9-2.1
			c0-1,0.4-1.8,1.3-2.5c0.9-0.6,2.3-1,4.4-1c0.3,0,0.7,0,1.3,0c0-0.8-0.1-1.4-0.2-1.7c-0.1-0.4-0.4-0.6-0.8-0.8
			c-0.4-0.2-0.9-0.3-1.6-0.3c-1.6,0-2.5,0.6-2.7,1.8l-1.4-0.2c0.3-1.8,1.8-2.7,4.4-2.7c1.4,0,2.3,0.3,2.9,0.9
			c0.6,0.6,0.9,1.7,0.9,3.2v4.2C250.2,126.9,250.3,127.6,250.4,128.1z M248.7,123.2c-0.6,0-1.1-0.1-1.4-0.1c-1.2,0-2.2,0.2-2.8,0.6
			c-0.7,0.4-1,1-1,1.8c0,0.5,0.2,0.9,0.5,1.2c0.4,0.3,0.9,0.5,1.6,0.5c0.9,0,1.7-0.3,2.3-1c0.6-0.7,0.9-1.5,0.9-2.4
			C248.7,123.6,248.7,123.4,248.7,123.2z"/>
		<path class="st1" d="M257,125.6l1.5-0.3c0.3,1.3,1.4,1.9,3.1,1.9c0.6,0,1.2-0.1,1.6-0.4c0.4-0.3,0.7-0.7,0.7-1.2
			c0-0.8-0.6-1.3-1.7-1.5l-2.1-0.4c-0.8-0.2-1.5-0.5-2-0.9c-0.5-0.5-0.7-1.1-0.7-1.8c0-0.8,0.3-1.5,1-2.1c0.7-0.6,1.6-0.8,2.7-0.8
			c2.2,0,3.5,0.8,4,2.5l-1.4,0.3c-0.4-1-1.2-1.6-2.5-1.6c-0.6,0-1.1,0.1-1.6,0.4c-0.4,0.3-0.6,0.6-0.6,1.1c0,0.7,0.5,1.2,1.5,1.4
			l1.9,0.3c2,0.4,3,1.4,3,2.9c0,0.9-0.4,1.7-1.1,2.2c-0.8,0.6-1.8,0.8-3,0.8C259,128.4,257.6,127.5,257,125.6z"/>
		<path class="st1" d="M271.3,128.4c-1.4,0-2.4-0.5-3.2-1.5c-0.8-1-1.1-2.3-1.1-3.8c0-1.6,0.4-2.8,1.3-3.8c0.9-0.9,1.9-1.4,3.2-1.4
			c1.4,0,2.5,0.5,3.2,1.5c0.8,1,1.2,2.2,1.2,3.7c0,1.6-0.4,2.8-1.3,3.8C273.7,127.9,272.6,128.4,271.3,128.4z M271.4,127.1
			c0.8,0,1.5-0.3,2-1c0.5-0.6,0.8-1.7,0.8-3c0-1.4-0.3-2.4-0.8-3c-0.6-0.6-1.2-0.9-2-0.9c-0.8,0-1.4,0.3-2,0.9
			c-0.5,0.6-0.8,1.6-0.8,3c0,1.4,0.3,2.5,0.8,3.1C269.9,126.8,270.6,127.1,271.4,127.1z"/>
		<path class="st1" d="M286,128.1h-1.4v-6.4c0-0.9-0.2-1.6-0.6-1.9s-0.9-0.6-1.5-0.6c-0.8,0-1.5,0.3-2,0.9c-0.5,0.6-0.8,1.5-0.8,2.5
			v5.5h-1.5v-9.9h1.4v1.8c0.8-1.4,1.9-2.1,3.1-2.1c0.7,0,1.4,0.2,1.9,0.6c0.5,0.4,0.9,0.8,1.1,1.3c0.2,0.5,0.3,1.3,0.3,2.6V128.1z
			 M284.8,114.6l0.8,0.7c-0.7,0.7-1.4,1-2,1c-0.3,0-0.7-0.1-1.3-0.3c-0.6-0.2-1-0.4-1.3-0.4c-0.5,0-1,0.2-1.3,0.7l-0.8-0.6
			c0.6-0.8,1.3-1.3,2.2-1.3c0.3,0,0.7,0.1,1.3,0.3c0.6,0.2,1,0.4,1.3,0.4C283.9,115.1,284.4,114.9,284.8,114.6z"/>
		<path class="st1" d="M296.9,128.1h-1.5c-0.1-0.3-0.1-0.9-0.2-1.8c-0.7,1.4-1.8,2.1-3.5,2.1c-1.1,0-2-0.3-2.6-0.9s-0.9-1.3-0.9-2.1
			c0-1,0.4-1.8,1.3-2.5c0.9-0.6,2.3-1,4.4-1c0.3,0,0.7,0,1.3,0c0-0.8-0.1-1.4-0.2-1.7c-0.1-0.4-0.4-0.6-0.8-0.8
			c-0.4-0.2-0.9-0.3-1.6-0.3c-1.6,0-2.5,0.6-2.7,1.8l-1.4-0.2c0.3-1.8,1.8-2.7,4.4-2.7c1.4,0,2.3,0.3,2.9,0.9
			c0.6,0.6,0.9,1.7,0.9,3.2v4.2C296.7,126.9,296.8,127.6,296.9,128.1z M295.2,123.2c-0.6,0-1.1-0.1-1.4-0.1c-1.2,0-2.2,0.2-2.8,0.6
			c-0.7,0.4-1,1-1,1.8c0,0.5,0.2,0.9,0.5,1.2c0.4,0.3,0.9,0.5,1.6,0.5c0.9,0,1.7-0.3,2.3-1c0.6-0.7,0.9-1.5,0.9-2.4
			C295.2,123.6,295.2,123.4,295.2,123.2z"/>
		<path class="st1" d="M307.5,114.7v13.4h-1.4v-1.7c-0.7,1.3-1.7,2-3.1,2c-1.2,0-2.1-0.5-2.9-1.5c-0.7-1-1.1-2.2-1.1-3.7
			c0-1.5,0.4-2.8,1.1-3.8c0.7-1,1.7-1.5,3-1.5c1.2,0,2.2,0.5,2.9,1.6v-4.9H307.5z M306,122c0-0.9-0.3-1.6-0.8-2.1
			c-0.5-0.5-1.2-0.8-1.9-0.8c-0.8,0-1.4,0.3-1.9,1c-0.5,0.7-0.7,1.6-0.7,2.9c0,1.3,0.2,2.3,0.7,3c0.5,0.7,1.1,1,1.9,1
			c0.7,0,1.4-0.3,1.9-0.9c0.6-0.6,0.8-1.3,0.8-2.1V122z"/>
		<path class="st1" d="M314.2,128.4c-1.4,0-2.4-0.5-3.2-1.5c-0.8-1-1.1-2.3-1.1-3.8c0-1.6,0.4-2.8,1.3-3.8s1.9-1.4,3.2-1.4
			c1.4,0,2.5,0.5,3.2,1.5c0.8,1,1.2,2.2,1.2,3.7c0,1.6-0.4,2.8-1.3,3.8C316.7,127.9,315.6,128.4,314.2,128.4z M314.3,127.1
			c0.8,0,1.5-0.3,2-1c0.5-0.6,0.8-1.7,0.8-3c0-1.4-0.3-2.4-0.8-3c-0.6-0.6-1.2-0.9-2-0.9c-0.8,0-1.4,0.3-2,0.9
			c-0.5,0.6-0.8,1.6-0.8,3c0,1.4,0.3,2.5,0.8,3.1C312.9,126.8,313.5,127.1,314.3,127.1z"/>
		<path class="st1" d="M322.7,128.1h-1.5v-9.9h1.4v2.3c0.5-1.1,1-1.8,1.4-2.1c0.5-0.3,1-0.5,1.5-0.5c0.2,0,0.4,0,0.6,0v1.5h-0.3
			c-0.9,0-1.6,0.3-2.1,1c-0.6,0.6-0.9,1.5-0.9,2.5V128.1z"/>
		<path class="st1" d="M334.3,125.2l1.4,0.3c-0.3,0.8-0.8,1.6-1.5,2.1c-0.8,0.6-1.7,0.8-2.7,0.8c-1.4,0-2.5-0.5-3.3-1.4
			c-0.8-1-1.3-2.2-1.3-3.8c0-1.6,0.4-2.9,1.3-3.8c0.9-1,2-1.5,3.3-1.5c1.3,0,2.3,0.4,3.1,1.3c0.8,0.9,1.2,2.2,1.2,4h-7.2
			c0,1.5,0.3,2.5,0.9,3c0.6,0.5,1.3,0.8,2,0.8C332.9,127.1,333.8,126.5,334.3,125.2z M334.3,122.2c0-0.6-0.1-1.1-0.3-1.5
			c-0.2-0.4-0.5-0.8-0.9-1.1c-0.4-0.3-0.9-0.5-1.5-0.5c-0.8,0-1.4,0.3-2,0.8c-0.5,0.6-0.8,1.3-0.9,2.2H334.3z"/>
		<path class="st1" d="M336.9,125.6l1.5-0.3c0.3,1.3,1.4,1.9,3.1,1.9c0.6,0,1.2-0.1,1.6-0.4c0.4-0.3,0.7-0.7,0.7-1.2
			c0-0.8-0.6-1.3-1.7-1.5l-2.1-0.4c-0.8-0.2-1.5-0.5-2-0.9c-0.5-0.5-0.7-1.1-0.7-1.8c0-0.8,0.3-1.5,1-2.1c0.7-0.6,1.6-0.8,2.7-0.8
			c2.2,0,3.5,0.8,4,2.5l-1.4,0.3c-0.4-1-1.2-1.6-2.5-1.6c-0.6,0-1.1,0.1-1.6,0.4c-0.4,0.3-0.6,0.6-0.6,1.1c0,0.7,0.5,1.2,1.5,1.4
			l1.9,0.3c2,0.4,3,1.4,3,2.9c0,0.9-0.4,1.7-1.1,2.2s-1.8,0.8-3,0.8C338.9,128.4,337.5,127.5,336.9,125.6z"/>
	</g>
</g>
</svg>
