<?xml version="1.0" encoding="utf-8"?>
<!-- Generator: Adobe Illustrator 20.0.0, SVG Export Plug-In . SVG Version: 6.00 Build 0)  -->
<svg version="1.1" id="Capa_1" xmlns="http://www.w3.org/2000/svg" xmlns:xlink="http://www.w3.org/1999/xlink" x="0px" y="0px"
	 viewBox="0 0 300 150" style="enable-background:new 0 0 300 150;" xml:space="preserve">
<style type="text/css">
	.st0{fill:#CE292C;}
</style>
<path class="st0" d="M41.7,65.5c0-1,0-2.1-0.2-3.1c-0.1-0.9-0.3-1.7-0.6-2.5c-0.3-0.7-0.7-1.3-1.4-1.7c-0.7-0.4-1.5-0.6-2.3-0.6
	c-0.7,0-1.4,0.2-1.9,0.7c-0.5,0.5-0.9,1-1.1,1.7c-0.3,0.7-0.5,1.4-0.6,2.1c-0.1,0.7-0.1,1.3-0.2,2v31.5c-0.1,1.6,0.3,3.1,1,4.5
	c0.6,1.1,1.8,1.7,3.1,1.7c0.7,0,1.4-0.2,2-0.6c0.5-0.4,0.9-0.9,1.2-1.4c0.3-0.6,0.5-1.2,0.6-1.9c0.1-0.7,0.2-1.4,0.2-2.1
	c0-2.3,0-4.1,0.1-5.6c0-1.2,0.1-2.4,0.3-3.6c0.1-0.7,0.3-1.3,0.6-1.9c0.2-0.4,0.6-0.6,1-0.6c1.2,0,2.3,0.5,3.1,1.5
	c0.9,1,1.9,2.1,2.9,3.3c0.3,0.4,0.7,0.9,1,1.3s0.9,1,1.6,1.7s1.5,1.6,2.5,2.9l2.4,2.6c0.8,0.9,1.6,1.7,2.4,2.4
	c0.8,0.7,1.6,1.3,2.5,1.8c0.8,0.4,1.7,0.7,2.5,0.7c0.9,0,1.8-0.2,2.7-0.6c0.8-0.4,1.3-1.3,1.2-2.2c0-1-0.4-2.1-1-2.9
	c-0.6-0.9-1.3-1.7-2-2.5l0,0c-0.9-1.1-1.9-2.2-2.9-3.3s-2-2.1-2.9-3.1s-1.9-2-2.7-2.9s-1.6-1.8-2.3-2.6c-0.6-0.7-1.1-1.4-1.5-2.1
	c-0.3-0.5-0.5-1.1-0.6-1.7c0-1.1,0.4-2.1,1-3c0.7-0.9,1.4-1.8,2.2-2.7l-0.2,0.1l1-1v0.1c0.7-0.7,1.6-1.6,2.7-2.6s2.2-2.2,3.2-3.3
	c0.9-1,1.8-2,2.7-3.1c0.6-0.6,1.1-1.4,1.2-2.3c0-0.6-0.1-1.2-0.3-1.7c-0.2-0.4-0.4-0.7-0.8-1c-0.3-0.2-0.6-0.4-0.9-0.4
	c-0.3,0-0.7,0-1,0c-0.9,0-1.8,0.2-2.6,0.6c-0.9,0.5-1.8,1-2.6,1.7c-0.9,0.7-1.7,1.5-2.5,2.3c-0.8,0.8-1.7,1.7-2.5,2.6l-1.3,1.4
	c-0.4,0.5-0.9,1-1.3,1.4L48.7,69c-0.6,0.6-1.2,1.2-1.8,1.7c-0.5,0.5-1.1,0.9-1.7,1.2c-0.4,0.3-0.9,0.4-1.4,0.4
	c-0.5,0-0.9-0.2-1.2-0.6c-0.3-0.5-0.5-1.1-0.6-1.6c-0.1-0.7-0.2-1.5-0.3-2.2C41.7,67.1,41.7,66.3,41.7,65.5z M79.5,62.3
	c0-0.7-0.1-1.5-0.2-2.2c-0.1-0.7-0.2-1.5-0.5-2.1c-0.2-0.6-0.7-1.2-1.2-1.6c-0.7-0.4-1.5-0.7-2.3-0.6c-0.8,0-1.6,0.2-2.3,0.7
	c-0.6,0.4-1,1-1.3,1.7c-0.3,0.7-0.5,1.4-0.5,2.2c-0.1,0.8-0.1,1.5-0.1,2.1v31.9c0,1,0.1,2,0.2,3c0.1,0.8,0.3,1.6,0.6,2.4
	c0.3,0.6,0.7,1.1,1.3,1.5c0.7,0.4,1.4,0.6,2.2,0.5c0.8,0,1.6-0.2,2.3-0.6c0.6-0.4,1-1,1.2-1.6c0.3-0.8,0.4-1.5,0.5-2.4
	c0.1-0.9,0.1-1.8,0.1-2.9L79.5,62.3z M122.6,78l-3.1-10.9c-0.4-1.4-0.9-2.8-1.3-4.2c-0.4-1.2-0.9-2.4-1.4-3.5
	c-0.5-0.9-1.2-1.7-2-2.4c-0.8-0.6-1.8-0.9-2.8-0.9c-1,0-2.1,0.3-2.9,0.8c-0.8,0.6-1.5,1.4-2,2.3c-0.6,1.1-1,2.2-1.4,3.4
	c-0.4,1.3-0.8,2.6-1.2,4l-3.1,11.1c-0.4,1.4-0.9,2.8-1.6,4.1c-0.6,1-1.2,1.5-1.9,1.5s-1.2-0.4-1.7-1.3c-0.5-1.2-1-2.5-1.2-3.9
	l-3.4-13c-0.4-1.4-0.8-2.9-1.3-4.3c-0.3-0.9-0.8-1.8-1.3-2.7c-0.4-0.6-0.9-1-1.5-1.3c-0.6-0.2-1.3-0.4-1.9-0.4c-1-0.1-2,0.2-2.7,0.8
	c-0.7,0.8-1,1.9-0.8,2.9c0,0.8,0.1,1.5,0.3,2.3c0.2,1.3,0.5,2.5,0.9,3.7l6,20.3v-0.1c0.1,0.3,0.2,0.7,0.3,1c0.1,0.4,0.2,0.7,0.3,1.1
	c0.3,1,0.6,2,0.9,3.1s0.7,2.1,1,3c0.3,0.9,0.7,1.8,1.2,2.7c0.4,0.8,0.8,1.5,1.3,2.2c0.4,0.5,1,1,1.6,1.4c0.6,0.3,1.2,0.5,1.9,0.5
	c1.6,0.1,3.1-0.7,3.9-2.1c1.1-1.9,1.9-4,2.5-6.2l5.1-16.4c0.3-1.2,0.8-2.4,1.4-3.4c0.3-0.6,0.9-1,1.5-1c0.7,0,1.4,0.4,1.8,1.1
	c0.6,0.9,1,1.9,1.3,3l4.6,16.9c0.4,1.4,0.8,2.6,1.2,3.7c0.3,0.9,0.7,1.7,1.2,2.4v-0.1c0.9,1.3,2.4,2.1,4,2.1c0.9,0,1.7-0.2,2.5-0.6
	c0.7-0.4,1.3-1,1.8-1.7c0.6-1,1.1-2,1.4-3.1c0.4-1.3,0.8-2.8,1.3-4.6c0.2-0.7,0.4-1.4,0.6-2.1s0.4-1.5,0.7-2.3l6.1-21.2v0.2
	c0.4-1.1,0.6-2.2,0.9-3.4c0.1-0.7,0.2-1.4,0.2-2.1c0.1-1-0.2-2-0.8-2.9c-0.8-0.7-1.8-1-2.8-0.9c-1.1,0-2.1,0.5-2.7,1.3
	c-1,1.5-1.7,3.3-2.1,5.1l-1.5,5.7l-0.9,3.3c-0.3,0.9-0.5,1.7-0.7,2.4s-0.5,1.7-0.8,2.9c-0.3,1.5-0.8,3-1.4,4.4c-0.5,1-1,1.5-1.7,1.5
	s-1.3-0.5-1.8-1.5C123.4,80.8,122.9,79.4,122.6,78L122.6,78z M188.8,79.4c0.1-3.8-0.6-7.7-2-11.3c-2.3-5.8-7.2-10.3-13.2-12.1
	c-3-0.9-6.1-1.4-9.3-1.4c-3.5-0.1-6.9,0.6-10.1,1.9c-2.8,1.2-5.4,3-7.4,5.3c-2,2.3-3.6,5-4.6,7.9c-1.1,3.2-1.6,6.5-1.6,9.8
	c0,3.1,0.6,6.1,1.7,8.9c1.1,2.8,2.7,5.3,4.8,7.4c2.1,2.2,4.7,3.9,7.5,5.1c3.1,1.3,6.4,1.9,9.8,1.9c3.3,0,6.6-0.5,9.7-1.7
	c2.9-1,5.5-2.6,7.8-4.7c2.2-2.1,4-4.6,5.1-7.4C188.2,86,188.8,82.7,188.8,79.4L188.8,79.4z M149.4,79.4c0-2.5,0.4-5,1.3-7.4
	c0.8-2,1.9-3.8,3.4-5.4c1.3-1.4,3-2.6,4.8-3.3c1.8-0.7,3.6-1.1,5.6-1.1c2.1,0,4.2,0.4,6.2,1.1c1.9,0.8,3.6,1.9,5,3.4
	c1.5,1.6,2.6,3.4,3.4,5.4c0.8,2.3,1.2,4.8,1.2,7.3c0,2.1-0.4,4.1-1.1,6.1c-0.7,1.9-1.8,3.6-3.2,5c-1.4,1.5-3.1,2.6-5,3.4
	c-2,0.9-4.2,1.3-6.4,1.3c-2.2,0-4.4-0.5-6.3-1.4c-1.8-0.9-3.3-2.2-4.6-3.7c-1.3-1.5-2.2-3.2-2.9-5.1
	C149.8,83.1,149.4,81.3,149.4,79.4z M198.9,65.5c0-1,0-2.1-0.1-3.1c-0.1-0.9-0.3-1.7-0.6-2.5c-0.3-0.7-0.7-1.3-1.4-1.7
	c-0.7-0.4-1.5-0.6-2.4-0.6c-0.7,0-1.4,0.2-1.9,0.7c-0.5,0.5-0.9,1-1.2,1.7c-0.3,0.7-0.5,1.4-0.6,2.1c-0.1,0.7-0.2,1.3-0.2,2v31.5
	c-0.1,1.6,0.3,3.1,1,4.5c0.6,1.1,1.8,1.8,3.1,1.7c0.7,0,1.4-0.2,2-0.6c0.5-0.4,0.9-0.9,1.2-1.4c0.3-0.6,0.5-1.2,0.6-1.9
	c0.1-0.7,0.2-1.4,0.2-2.1c0-2.3,0-4.1,0.1-5.6c0-1.2,0.1-2.4,0.3-3.6c0.1-0.7,0.3-1.3,0.6-1.9c0.2-0.4,0.6-0.6,1-0.6
	c1.2,0,2.4,0.5,3.1,1.5c0.9,1,1.9,2.1,2.9,3.3c0.3,0.4,0.7,0.9,1,1.3s0.9,1,1.6,1.7s1.4,1.6,2.5,2.9c0.8,0.9,1.6,1.8,2.4,2.7
	c0.8,0.9,1.6,1.7,2.4,2.4c0.8,0.7,1.6,1.3,2.5,1.8c0.8,0.4,1.6,0.7,2.5,0.7c0.9,0,1.8-0.2,2.7-0.6c0.8-0.4,1.3-1.3,1.2-2.3
	c0-1-0.4-2.1-1-2.9c-0.6-0.9-1.3-1.7-2-2.5h0.1c-0.9-1.1-1.9-2.2-2.9-3.3l-2.9-3.1c-1-1-1.9-2-2.8-2.9s-1.6-1.8-2.3-2.6
	c-0.5-0.7-1-1.4-1.4-2.1c-0.3-0.5-0.5-1.1-0.6-1.7c0-1.1,0.4-2.1,1-3c0.7-0.9,1.4-1.8,2.2-2.7l-0.2,0.1l1-1v0.1l2.8-2.6
	c1.1-1.1,2.2-2.2,3.2-3.3c1-1.1,1.9-2.1,2.7-3.1c0.6-0.6,1-1.4,1.1-2.2c0-0.6-0.1-1.2-0.3-1.7c-0.2-0.4-0.4-0.7-0.8-1
	c-0.3-0.2-0.6-0.4-1-0.4c-0.3-0.1-0.7-0.1-1-0.1c-0.9,0-1.8,0.2-2.6,0.6c-0.9,0.5-1.8,1-2.6,1.7c-0.9,0.7-1.7,1.5-2.5,2.3
	c-0.8,0.8-1.7,1.7-2.5,2.6l-1.3,1.5c-0.4,0.5-0.9,0.9-1.3,1.4l-1.8,1.8c-0.6,0.6-1.2,1.2-1.8,1.7c-0.5,0.5-1.1,0.9-1.7,1.2
	c-0.4,0.3-0.9,0.4-1.4,0.4c-0.5,0-0.9-0.2-1.2-0.6c-0.3-0.5-0.5-1.1-0.6-1.6c-0.1-0.7-0.2-1.5-0.3-2.2
	C198.9,67.1,198.9,66.3,198.9,65.5L198.9,65.5z M271,79.4c0.1-3.8-0.6-7.7-2-11.3c-2.3-5.8-7.2-10.3-13.2-12.1c-3-1-6.2-1.4-9.3-1.4
	c-3.5-0.1-6.9,0.6-10.1,1.9c-2.8,1.2-5.4,3-7.4,5.3c-2.1,2.3-3.6,5-4.6,7.9c-1.1,3.2-1.6,6.5-1.6,9.8c0,3.1,0.5,6.1,1.7,8.9
	c1.1,2.8,2.7,5.3,4.8,7.4c2.1,2.2,4.7,3.9,7.5,5.1c3.1,1.3,6.4,2,9.8,1.9c3.3,0,6.6-0.5,9.7-1.7c2.9-1,5.5-2.6,7.8-4.7
	c2.2-2.1,4-4.6,5.2-7.4C270.4,86,271,82.7,271,79.4L271,79.4z M231.6,79.4c0-2.5,0.4-5,1.3-7.4c0.8-2,1.9-3.8,3.4-5.4
	c1.3-1.4,2.9-2.6,4.8-3.3c1.7-0.7,3.6-1.1,5.5-1.1c2.1,0,4.2,0.4,6.2,1.1c1.9,0.8,3.6,1.9,5,3.4c1.5,1.6,2.6,3.4,3.4,5.4
	c0.8,2.3,1.2,4.8,1.2,7.3c0,2.1-0.4,4.1-1.1,6.1c-0.7,1.9-1.8,3.6-3.2,5c-1.4,1.5-3.1,2.6-5,3.4c-2,0.9-4.2,1.3-6.4,1.3
	c-2.2,0-4.4-0.5-6.3-1.4c-1.8-0.9-3.4-2.2-4.7-3.8c-1.3-1.5-2.2-3.2-2.9-5.1C231.9,83.1,231.6,81.2,231.6,79.4L231.6,79.4z
	 M158.1,75.6c1.7,0,3.1,1.4,3.1,3s-1.4,3.1-3,3.1c-1.7,0-3.1-1.4-3.1-3c0,0,0,0,0,0C155,77,156.4,75.6,158.1,75.6L158.1,75.6z
	 M171.2,75.6c1.7,0,3.1,1.4,3.1,3s-1.4,3.1-3,3.1c-1.7,0-3.1-1.4-3.1-3c0,0,0,0,0,0C168.1,77,169.5,75.6,171.2,75.6L171.2,75.6z"/>
</svg>
