<svg version="1.1" id="Capa_1" xmlns="http://www.w3.org/2000/svg" x="0" y="0" viewBox="0 0 300 150" xml:space="preserve"><style>.st0{fill:#624e49}</style><path class="st0" d="M19.1 98c-.8 0-1.3-.6-1.3-1.3V73.1h-5.4c-.8 0-1.3-.6-1.3-1.3V69c0-.8.6-1.3 1.3-1.3h17.4c.8 0 1.3.6 1.3 1.3v2.8c0 .8-.6 1.3-1.3 1.3h-5.7v23.5c0 .8-.6 1.3-1.3 1.3h-3.7zm15.6 0c-.8 0-1.3-.6-1.3-1.3V77c0-.8.6-1.3 1.3-1.3h3.7c.8 0 1.3.6 1.3 1.3v19.6c0 .8-.6 1.3-1.3 1.3h-3.7v.1zm1.7-24.2c-1.8 0-3.2-1.4-3.2-3.1 0-1.7 1.4-3 3.2-3 1.7 0 3.2 1.4 3.2 3 0 1.7-1.4 3.1-3.2 3.1zm18 25c-7.8 0-11.7-4-11.7-11.9 0-4.8 1.4-8.3 4.2-10.3 2.3-1.7 4.8-1.9 6.1-1.9 3.9 0 10.1 1.5 10.1 11.3 0 1.6-.4 3.1-2.9 3.1H49c.5 3.2 2.3 4.7 5.4 4.7 1.5 0 3.1-.3 4.8-.9.2-.1.3-.1.5-.1.6 0 1 .3 1.2.8l.8 2.2c.2.6 0 1.2-.6 1.6-1.7.8-4.7 1.4-6.7 1.4zm-.9-19.5c-3.2 0-4.1 2.7-4.3 5h8.3c-.3-3.5-1.4-5-4-5zM83 98c-.8 0-1.3-.6-1.3-1.3V83c0-3-2.1-3.5-3.3-3.5-2.2 0-3.9.8-5.2 2.6v14.5c0 .8-.6 1.3-1.3 1.3h-3.7c-.8 0-1.3-.6-1.3-1.3V77c0-.4.2-.7.4-.9.3-.3.6-.4.9-.4h2.5c.6 0 1.1.5 1.2 1v.8c.8-.8 3.1-3 7.2-3 3.7 0 8.6.8 8.6 8.5v13.7c0 .8-.6 1.3-1.3 1.3H83zm18.6.8c-3.9 0-10.4-1.6-10.4-12.1 0-4.1 1.2-7.3 3.5-9.6 2.5-2.3 5.4-2.6 7-2.6 2.3 0 4.2.7 5.7 1.9V69c0-.8.6-1.3 1.3-1.3h3.7c.8 0 1.3.6 1.3 1.3v27.6c0 .4-.2.7-.4.9-.3.3-.6.4-.9.4h-3.3c-.7 0-1.2-.5-1.3-1.2v-.5c-1.1 1.3-3.1 2.6-6.2 2.6zm1.2-19.4c-2.6 0-5.4 1.9-5.4 7.2 0 2.6.7 7.1 5.3 7.1 2.1 0 3.9-1.1 5-2.9v-9.1c-1.3-1.5-2.9-2.3-4.9-2.3z"/><path d="M126.5 98.8c-5.4 0-9-2.8-9-7.2 0-2.9 1.6-7.7 11.9-7.7h1.8v-2.1c0-.7 0-2.3-3.3-2.3-1.4 0-2.6.2-3.9.7-.2 0-.3.1-.5.1-.4 0-.8-.2-.9-.5l-1.9-2.1c-.3-.3-.4-.8-.3-1.1.1-.4.3-.8.7-.9 1.6-.8 4-1.3 6.8-1.3 3.5 0 9.4.9 9.4 7.1v15c0 .8-.6 1.3-1.3 1.3h-3.2c-.6 0-1-.4-1.2-.9-1.9 1.2-3.6 1.9-5.1 1.9zm3.3-10.8c-4.2 0-6.1.9-6.1 3.2 0 1.8 1.1 2.7 3.4 2.7 1.8 0 3-.6 4-1.1v-4.7c-.6-.1-1-.1-1.3-.1zM157 98c-.8 0-1.3-.6-1.3-1.3V83c0-3-2.1-3.5-3.3-3.5-2.2 0-3.9.8-5.2 2.6v14.5c0 .8-.6 1.3-1.3 1.3h-3.7c-.8 0-1.3-.6-1.3-1.3V77c0-.4.2-.7.4-.9.3-.3.6-.4.9-.4h2.5c.6 0 1.1.5 1.2 1l.1.8c.8-.8 3.1-3 7.2-3 3.7 0 8.6.8 8.6 8.5v13.7c0 .8-.6 1.3-1.3 1.3H157zm10 0c-.8 0-1.3-.6-1.3-1.3V77c0-.8.6-1.3 1.3-1.3h3.7c.8 0 1.3.6 1.3 1.3v19.6c0 .8-.6 1.3-1.3 1.3H167zm1.9-24.1c-1.8 0-3.2-1.4-3.2-3.1s1.4-3 3.2-3c1.7 0 3.2 1.4 3.2 3 0 1.7-1.4 3.1-3.2 3.1zM202.6 98c-.8 0-1.3-.6-1.3-1.3V82.9c0-2.2-.8-3.2-2.3-3.2-2.3 0-3.5 1.3-4.1 2.4v14.5c0 .8-.6 1.3-1.3 1.3h-3.8c-.8 0-1.3-.6-1.3-1.3V82.9c0-2.2-.8-3.2-2.3-3.2-1.8 0-3.2.8-4.1 2.4v14.5c0 .8-.6 1.3-1.3 1.3h-3.7c-.8 0-1.3-.6-1.3-1.3V77c0-.4.2-.7.4-.9.3-.3.6-.4.9-.4h2.5c.6 0 1.1.5 1.2 1l.1.8c1.5-2 3.7-3.1 6.3-3.1 3 0 5.2 1 6.3 3.1 1.6-2.1 3.7-3.1 6.4-3.1 1.9 0 7.4 0 7.4 8.2v14c0 .8-.6 1.3-1.3 1.3h-3.4v.1zm17.7.8c-5.4 0-9-2.8-9-7.2 0-2.9 1.5-7.7 11.9-7.7h1.8v-2.1c0-.7 0-2.3-3.3-2.3-1.4 0-2.6.2-3.9.7-.2 0-.3.1-.5.1-.4 0-.8-.2-.9-.5l-1.9-2.1c-.3-.3-.4-.8-.3-1.1s.3-.8.7-.9c1.6-.8 4-1.3 6.8-1.3 3.5 0 9.4.9 9.4 7.1v15c0 .8-.6 1.3-1.3 1.3h-3.2c-.6 0-1-.4-1.2-.9-1.7 1.2-3.4 1.9-5.1 1.9zm3.5-10.8c-4.2 0-6.1.9-6.1 3.2 0 1.8 1.1 2.7 3.4 2.7 1.8 0 3-.6 4-1.1v-4.7c-.6-.1-1-.1-1.3-.1zm18.4 10.5c-3.4 0-7.3-1.3-7.3-7.9V69c0-.8.6-1.3 1.3-1.3h3.7c.8 0 1.3.6 1.3 1.3v21.2c0 1.9.7 3 1.8 3h.7c.6 0 1 .3 1.2.8l.9 2.4c.3.7 0 1.4-.8 1.7-.8.2-1.7.4-2.8.4z" fill="#78b800"/><path class="st0" d="M264.1 60c1.2-3.1.3-6.7-2.3-7.7-2.6-1-5.7.8-7 3.9-1.2 3.1-.3 6.7 2.3 7.7 2.6 1.2 5.8-.8 7-3.9zm25.4 10.2c1.2-3.1.3-6.7-2.3-7.7-2.6-1-5.7.8-7 3.9-1.2 3.1-.3 6.7 2.3 7.7 2.6 1.1 5.8-.8 7-3.9zM262 88c-5.8-2.3-8.9-8.2-6.9-13.4 1.7-4.2 6.3-6.6 11.1-6.1 1.1.1 2.3.4 3.3.8 1.1.5 2.1 1 2.9 1.7 3.8 2.9 5.4 7.8 3.8 12-2 5.4-8.3 7.3-14.2 5zm18-31.9c-.7-1.6-1.9-2.9-3.6-3.7-1.1-.5-2.3-.6-3.4-.4-.1 0-.2 0-.3.1h-.2c-1.8.5-3.6 1.6-4.7 3.3-.4.6-.8 1.1-1 1.8-.8 2.3-.8 4.5 0 6.5.7 1.6 1.9 2.9 3.6 3.7 1.1.5 2.3.6 3.4.4.1 0 .2 0 .3-.1h.2c1.8-.5 3.5-1.6 4.7-3.3.4-.6.8-1.1 1-1.8.8-2.2.8-4.5 0-6.5z"/></svg>