<svg version="1.1" id="Capa_1" xmlns="http://www.w3.org/2000/svg" x="0" y="0" viewBox="0 0 300 150" xml:space="preserve"><style>.st0{fill:#201814}</style><path class="st0" d="M104.7 94.3l-.1-28.5c-.1-9.6-6.4-15.3-17.5-15.3-8.2 0-12.7 1.9-18.7 5.5l3.8 6.5c4.3-3 8.7-4.3 12.9-4.3 6.9-.1 10.3 3.2 10.3 8.7V79c-.5 4.7-5.6 8.2-12.2 8.2-5.2 0-8.4-2.6-8.4-6.4 0-4.2 2.9-5.7 8.9-5.7h7.8v-6.9h-9.1C71.9 68.3 66 73.4 66 81.3c0 7.7 5.9 13.5 15.3 13.5 6.3 0 11.3-1.9 14.4-5.7v5.3h9v-.1zm86 0l-.1-28.5c-.1-9.5-6.4-15.3-17.6-15.3-8.2 0-12.7 1.9-18.7 5.5l3.8 6.5c4.3-3 8.7-4.3 12.9-4.3 6.9 0 10.3 3.3 10.3 8.8v12.2c-.5 4.7-5.6 8.2-12.2 8.2-5.2 0-8.4-2.6-8.4-6.4 0-4.2 2.9-5.7 8.9-5.7h7.8v-6.9h-9.2c-10.5.1-16.4 5.1-16.4 13 0 7.7 5.9 13.5 15.3 13.5 6.3 0 11.3-1.9 14.4-5.7v5.3l9.2-.2z"/><path d="M222.1 70.5l13-19.6h-10.2L215 65.7l-9.7-14.8h-10.9L208.7 72l.9 1.3-14.5 21h10.5l11.1-15.9 5.4-7.9zm1.4 5l-5.3 7.8 7.1 11h10.8l-12.6-18.8z" fill="#c8d51e"/><path class="st0" d="M127 80.8l-11.9-30h-8.8L123 90.6l4-9.8z"/><path class="st0" d="M142.8 50.8L126 93.6l-1.5 3.3c-1.5 3.3-3.7 4.8-6.6 4.8-1.9 0-3.6-.6-5.6-2.2l-3.8 7.1c3 2.6 6.1 3.6 10.1 3.6 6.5 0 11.5-3.4 14.1-10.2l19.8-49.4h-9.4v.2h-.3z"/></svg>