<?xml version="1.0" encoding="utf-8"?>
<!-- Generator: Adobe Illustrator 21.0.0, SVG Export Plug-In . SVG Version: 6.00 Build 0)  -->
<svg version="1.1" id="Capa_1" xmlns="http://www.w3.org/2000/svg" xmlns:xlink="http://www.w3.org/1999/xlink" x="0px" y="0px"
	 viewBox="0 0 300 150" style="enable-background:new 0 0 300 150;" xml:space="preserve">
<style type="text/css">
	.st0{fill:#BC3087;}
	.st1{fill:#282A4E;}
</style>
<path class="st0" d="M239.4,48.7c0.3-0.3,0.7-0.4,1.1-0.5h24.8c0.4,0,0.7,0.3,0.7,0.7v24.8c0,0.4-0.2,0.8-0.5,1.1l-4.2,4.2
	c-0.3,0.3-0.5,0.2-0.5-0.2V54.1c0-0.4-0.3-0.7-0.7-0.7h-24.8c-0.4,0-0.5-0.2-0.2-0.5L239.4,48.7z"/>
<path class="st0" d="M229.1,59c0.3-0.3,0.7-0.4,1.1-0.5H255c0.4,0,0.7,0.3,0.7,0.7v24.8c0,0.4-0.2,0.8-0.5,1.1l-4.2,4.2
	c-0.3,0.3-0.5,0.2-0.5-0.2V64.4c0-0.4-0.3-0.7-0.7-0.7h-24.8c-0.4,0-0.5-0.2-0.2-0.5L229.1,59z"/>
<path class="st1" d="M58.8,73.8c2.2,1.5,3.2,3.9,3.2,7.2v13.5c0.2,2.3-1.2,4.5-3.4,5.4c-2.3,1-5.5,1.5-9.6,1.5
	c-2.9,0.1-5.8-0.6-8.3-2.1c-2.2-1.4-3.3-3.7-3.3-7c0-3.1,0.9-5.4,2.7-6.9c1.8-1.5,4.3-2.3,7.6-2.3c2.9-0.1,5.9,0.6,8.5,2v-2.7
	c0-3.8-2.3-5.7-6.9-5.7c-1.7,0-3.4,0.3-5,0.8c-1.5,0.4-2.9,1.1-4.1,2.1V74c1.4-0.8,3-1.4,4.6-1.7c2-0.5,4.1-0.7,6.2-0.7
	C53.7,71.5,56.4,72.3,58.8,73.8z M54.6,96.2c0.9-0.2,1.5-1.1,1.5-2.1v-5.4c-2-0.8-4.1-1.3-6.3-1.3c-1.7-0.1-3.4,0.3-4.9,1.1
	c-1.1,0.8-1.7,2-1.7,3.4c-0.1,1.4,0.7,2.8,1.9,3.6c1.3,0.8,2.9,1.2,4.5,1.2C51.3,96.8,53,96.6,54.6,96.2z"/>
<path class="st1" d="M72.9,99.2c-1.5-1.6-2.4-3.7-2.2-5.9V77.1h-4.6v-4.9h4.6v-7.9h6.1v7.9h6.9v4.9h-6.9v15c-0.1,1.1,0.2,2.1,0.7,3
	c0.7,0.7,1.6,1.1,2.6,1c0.6,0,1.3-0.1,1.9-0.3c0.6-0.1,1.1-0.4,1.6-0.6v5.2c-1.5,0.6-3.1,0.9-4.7,0.9
	C76.8,101.4,74.6,100.6,72.9,99.2z"/>
<path class="st1" d="M89.2,74.8c1.7-0.9,3.5-1.6,5.3-2.1c2.4-0.7,5-1.1,7.5-1.1c1.3,0,2.6,0.2,3.8,0.7v4.8c-1.3-0.2-2.5-0.2-3.8-0.2
	c-2.3,0-4.7,0.2-7,0.6v23.1h-5.9V74.8z"/>
<path class="st1" d="M110.4,72.4h5.9l0.1,28.1h-6V72.4z"/>
<path class="st1" d="M129.6,72.4c2.3-0.5,4.6-0.8,7-0.8c3.9,0,6.9,0.8,8.7,2.5s2.8,4.2,2.8,7.7v18.7h-5.9V82.6
	c0-3.9-2.2-5.9-6.7-5.9c-2.1,0-4.2,0.4-6.1,1.1v22.8h-5.9v-26C125.4,73.6,127.5,72.9,129.6,72.4z"/>
<path class="st1" d="M155.3,72.4h5.9l0.1,28.1h-6V72.4z"/>
<path class="st1" d="M171.6,98.5c-2.2-1.9-3.3-4.7-3.3-8.5V72.2h5.9v16.9c0,2.4,0.5,4.2,1.6,5.3c1.1,1.1,2.7,1.7,5,1.7
	c2.3,0,3.9-0.6,5-1.7c1.1-1.1,1.6-2.9,1.6-5.3V72.2h5.7V90c0,3.7-1.1,6.5-3.2,8.5c-2.1,1.9-5.2,2.9-9.1,2.9
	C176.9,101.4,173.8,100.4,171.6,98.5z"/>
<path class="st1" d="M239.5,74.1c1.8,1.7,2.7,4.2,2.7,7.7v18.7h-5.9V82.6c0-3.9-2.2-5.9-6.7-5.9c-1.9,0-3.8,0.5-5.5,1.5
	c0.3,1.2,0.4,2.4,0.4,3.6v18.7h-5.9V82.6c0-3.9-2.2-5.9-6.7-5.9c-2,0-4.1,0.4-6,1.1v22.8h-5.9v-26c2-1,4-1.7,6.2-2.1
	c2.3-0.5,4.6-0.8,7-0.8c3.7,0,6.4,0.7,8.2,2.1c3-1.4,6.2-2.1,9.5-2.1C234.8,71.6,237.7,72.5,239.5,74.1z"/>
<path class="st0" d="M110.9,64.4h5c0.4,0,0.7,0.3,0.7,0.7v4c0,0.4-0.3,0.7-0.7,0.7h-5c-0.4,0-0.7-0.3-0.7-0.7v-4
	C110.2,64.7,110.5,64.4,110.9,64.4z"/>
<path class="st0" d="M155.7,64.4h5c0.4,0,0.7,0.3,0.7,0.7v4c0,0.4-0.3,0.7-0.7,0.7h-5c-0.4,0-0.7-0.3-0.7-0.7v-4
	C155.1,64.7,155.4,64.4,155.7,64.4z"/>
</svg>
