<svg xmlns="http://www.w3.org/2000/svg" viewBox="0 0 300 150"><linearGradient id="a" gradientUnits="userSpaceOnUse" x1="-2155.409" y1="-1227.241" x2="-2155.409" y2="-1226.701" gradientTransform="matrix(35 0 0 34 75709 41800.941)"><stop offset="0" stop-color="#465a6c"/><stop offset="1" stop-color="#293c50"/></linearGradient><path fill="url(#a)" d="M287.8 106h-11.4l-6.8-10.7-6.9 10.7h-11.1l12.3-17.8-11.8-17.3h11.4l6.3 9.9 6.4-9.9h11.1l-11.8 17z"/><linearGradient id="b" gradientUnits="userSpaceOnUse" x1="-2139.436" y1="-1227.241" x2="-2139.436" y2="-1226.701" gradientTransform="matrix(28 0 0 34 60135 41800.941)"><stop offset="0" stop-color="#465a6c"/><stop offset="1" stop-color="#293c50"/></linearGradient><path fill="url(#b)" d="M245.3 106h-29V70.9H245V79h-18.9v5.4h17.2v7.8h-17.2v5.5h19.2z"/><linearGradient id="c" gradientUnits="userSpaceOnUse" x1="-2162.054" y1="-1229.144" x2="-2162.054" y2="-1228.605" gradientTransform="matrix(39 0 0 35 84512 43093.852)"><stop offset="0" stop-color="#465a6c"/><stop offset="1" stop-color="#293c50"/></linearGradient><path d="M171.7 106L187 69.7h9.7l15.4 36.3h-10.8l-2.6-6.5h-13.9l-2.6 6.5h-10.5zm16.1-14.2h8.2l-4-10.2-4.2 10.2z" fill="url(#c)"/><linearGradient id="d" gradientUnits="userSpaceOnUse" x1="-2187.622" y1="-1253.934" x2="-2187.249" y2="-1252.742" gradientTransform="matrix(70 0 0 57 153257 71537.867)"><stop offset="0" stop-color="#f56558"/><stop offset="1" stop-color="#d62c4b"/></linearGradient><path fill="url(#d)" d="M94 106V69.6l15.6-10.8 11.9 8.5v29.2h9.7V61.8L152.8 47l13.8 9.7V106H157V61.7l-4.2-3-12.1 8.3v39H112V72.2l-2.6-1.7-5.9 4.1V106z"/><linearGradient id="e" gradientUnits="userSpaceOnUse" x1="-2162.163" y1="-1229.144" x2="-2162.163" y2="-1228.605" gradientTransform="matrix(39 0 0 35 84393 43093.852)"><stop offset="0" stop-color="#465a6c"/><stop offset="1" stop-color="#293c50"/></linearGradient><path d="M48.4 106l15.3-36.3h9.7L88.9 106H78.1l-2.6-6.5h-14l-2.6 6.5H48.4zm16-14.2h8.2l-4-10.2-4.2 10.2z" fill="url(#e)"/><linearGradient id="f" gradientUnits="userSpaceOnUse" x1="-2139.689" y1="-1227.241" x2="-2139.689" y2="-1226.701" gradientTransform="matrix(28 0 0 34 59940 41800.941)"><stop offset="0" stop-color="#465a6c"/><stop offset="1" stop-color="#293c50"/></linearGradient><path fill="url(#f)" d="M14.2 106V70.9h29v8.5h-19v6h17.2v8H24.2V106z"/></svg>