<svg version="1.1" id="Capa_1" xmlns="http://www.w3.org/2000/svg" x="0" y="0" viewBox="0 0 300 150" xml:space="preserve"><style>.st0{fill:#008fff}</style><path class="st0" d="M170.8 45l14.1 5.6-14.1 5.3v7.4l24.1-9.7v-6l-24.1-9.8z"/><path d="M41.2 73c-6.7 0-11.7 3-12.2 9.3h7.6v-.1c.1-2 2-3.6 4.2-3.5 2.9 0 4.2 1.7 4.2 4.5v1.3h-3.5c-7.3.1-13.4 2.3-13.4 9.4v.2c0 5.7 4.2 8.3 9.3 8.3 3.1.1 6-1.3 7.8-3.7v3.3H53V83c-.2-7.1-5.2-10-11.8-10zm-1.6 23.8c-2.7 0-3.9-1.3-3.9-3.3v-.2c0-2.5 1.9-3.6 5.9-3.6h3.1v2.7c.1 3-2.4 4.4-5.1 4.4zm31.4-.3c-3.7 0-5.7-2.5-5.7-8.3v-.8c0-5.5 2.3-8.3 5.7-8.3 2.7 0 4.2 1.8 4.7 4.5h7.5c-.6-7.3-6-10.6-12.3-10.6-7.5 0-13.5 5.1-13.5 14.7v.2c0 9.6 5.7 14.5 13.5 14.5 7.7 0 12-4.7 12.6-11h-7.2c-.6 3.1-2.7 5.1-5.3 5.1zm29.2 0c-3.7 0-5.7-2.5-5.7-8.3v-.8c0-5.5 2.3-8.3 5.7-8.3 2.7 0 4.2 1.8 4.7 4.5h7.5c-.6-7.3-6-10.6-12.3-10.6-7.5 0-13.5 5.1-13.5 14.7v.2c0 9.6 5.7 14.5 13.5 14.5 7.7 0 12-4.7 12.4-11h-7.1c-.3 3.1-2.5 5.1-5.2 5.1zm29.6.2c-3.5 0-5.5-1.9-5.9-7.1h18.3v-3.3c0-9.3-5.9-13.4-12.9-13.4-7.7 0-13.5 5.3-13.5 14.7v.6c0 9.4 5.5 14.2 13.6 14.2 7.3 0 11.8-4.1 12.6-9.4h-7.3c-.2 2.4-2.5 4-4.9 3.7zm-.4-18.3c3.1 0 5.1 1.8 5.3 6h-10.5c.5-4.6 2.8-5.9 5.2-6z"/><path class="st0" d="M124.1 84.4h-.1z"/><path d="M163.6 73c-3.6-.1-6.9 1.7-8.6 4.8v-4.2h-7.8v28.2h7.8v-18c.1-2.5 2.4-4.7 4.9-4.5 2.9 0 4.2 1.4 4.2 4.8v17.7h8v-19c.1-6.8-3.4-9.8-8.5-9.8zm23.3 19.7V79.4h5.4v-5.8h-5.4V65l-7.8 3.3v5.3h-3.5v5.9h3.3v14.2c0 5.7 2.9 8.6 9 8.6 1.4 0 3-.1 4.5-.6v-6.1c-.8.2-1.8.5-2.7.5-1.8-.2-2.8-1.2-2.8-3.4zm27.1-1.5v.7c-.1 2.5-2.4 4.7-4.9 4.5-2.9 0-4.1-1.4-4.1-4.8v-18h-8v19c0 6.6 3.7 9.8 8.9 9.8 3.5.1 6.6-1.7 8.3-4.8v4.2h8V73.6h-8l-.2 17.6zm21.7-12.6v-5.3h-7.8v28.2h7.8V87.1c0-4.7 3.1-6.3 8.6-6.3V73c-4.1 0-7.4 2.3-8.6 5.6zm37.3 7.6c0-9.3-5.9-13.3-12.9-13.3-7.7 0-13.5 5.3-13.5 14.7v.6c0 9.4 5.5 14.2 13.6 14.2 7.3 0 11.7-4.1 12.6-9.4h-7.3c-.6 2.4-2.9 3.9-5.3 3.7-3.5 0-5.5-1.9-5.9-7.1h18.4V86h.2l.1.2zm-18.3-1.8c.6-4.7 2.9-6 5.4-6 3.1 0 5.1 1.8 5.3 6h-10.7z"/></svg>